# xmcd
#
# Track frame offsets:
#	150
#	11072
#	22250
#	34612
#	49042
#	63592
#	75245
#	89600
#	106765
#	121405
#	134417
#	147207
#	162780
#	180277
#	195590
#	209572
#	225807
#	239537
#	251480
#	265480
#
# Disc length: 3683 seconds
#
# Revision: 1
# Processed by: cddbd v1.5.1PL0 Copyright (c) Steve Scherf et al.
# Submitted via: CDex 1.50Beta5
#
DISCID=0c0e6114
DTITLE=夏木マリ - 夏木マリ全曲集
DYEAR=1999
DGENRE=Pop
TTITLE0=絹の靴下
TTITLE1=媚薬
TTITLE2=裸足の女王
TTITLE3=お手やわらかに
TTITLE4=夏のせいかしら
TTITLE5=砂の女
TTITLE6=それからどうするの
TTITLE7=ガラスの絆
TTITLE8=誤解はといて
TTITLE9=愛人どまり
TTITLE10=サテンの夜
TTITLE11=夏の夜明けは悲しいの
TTITLE12=悲しみ上手
TTITLE13=これしかないのです
TTITLE14=チャイナタウン
TTITLE15=マンゴの木の下で
TTITLE16=愛情の瞬間
TTITLE17=野生の女
TTITLE18=私の本音
TTITLE19=ナイアガラ
EXTD=
EXTT0=
EXTT1=
EXTT2=
EXTT3=
EXTT4=
EXTT5=
EXTT6=
EXTT7=
EXTT8=
EXTT9=
EXTT10=
EXTT11=
EXTT12=
EXTT13=
EXTT14=
EXTT15=
EXTT16=
EXTT17=
EXTT18=
EXTT19=
PLAYORDER=
